<?xml version="1.0" encoding="utf-8"?>
<!-- Generator: Adobe Illustrator 13.0.0, SVG Export Plug-In . SVG Version: 6.00 Build 14948)  -->
<!DOCTYPE svg PUBLIC "-//W3C//DTD SVG 1.1//EN" "http://www.w3.org/Graphics/SVG/1.1/DTD/svg11.dtd">
<svg version="1.1" id="Livello_1" xmlns="http://www.w3.org/2000/svg" xmlns:xlink="http://www.w3.org/1999/xlink" x="0px" y="0px"
	 width="12.314px" height="15.611px" viewBox="0 0 12.314 15.611" enable-background="new 0 0 12.314 15.611" xml:space="preserve">
<path fill="#FFF800" d="M14.435,14.247c0,1.011-0.818,1.83-1.829,1.83H-1.291c-1.01,0-1.828-0.819-1.828-1.83V0.351
	c0-1.01,0.818-1.828,1.828-1.828h13.896c1.011,0,1.829,0.818,1.829,1.828V14.247z"/>
<g id="Livello_2" display="none">
	<g display="inline">
		<g>
			<g>
				<ellipse fill="#FFFFFF" cx="5.766" cy="13.926" rx="5.767" ry="1.686"/>
			</g>
			<g>
				<ellipse fill="#DCDDF0" cx="3.922" cy="13.933" rx="1.73" ry="0.571"/>
			</g>
			<g>
				<polygon fill="#D82627" points="3.922,0.317 12.315,4.793 3.922,9.268 				"/>
			</g>
			<g>
				<g>
					<polygon fill="#C12126" points="4.536,0.645 4.536,7.829 12.315,4.793 3.922,9.268 3.922,0.317 					"/>
				</g>
			</g>
		</g>
		<g>
			<line fill="none" x1="3.922" y1="0.401" x2="3.922" y2="13.704"/>
			<path d="M3.514,13.704V0.401c0-0.222,0.183-0.4,0.408-0.4l0,0c0.225,0,0.407,0.179,0.407,0.4l0,0v13.303
				c0,0.224-0.183,0.402-0.407,0.402l0,0C3.697,14.107,3.514,13.927,3.514,13.704L3.514,13.704z"/>
		</g>
	</g>
</g>
<g>
	<g id="Livello_1_1_">
		<g>
			<g>
				<g>
					<ellipse fill="#EDDB00" cx="1.121" cy="7.898" rx="3.479" ry="1.018"/>
				</g>
				<g>
					<ellipse fill="#FFF800" cx="2.234" cy="7.902" rx="1.045" ry="0.345"/>
				</g>
				<g>
					<polygon fill="#4651A3" points="2.234,-0.317 -2.833,2.385 2.234,5.086 					"/>
				</g>
				<g>
					<polygon fill="#4651A3" points="1.864,-0.119 1.864,4.218 -2.833,2.385 2.234,5.086 2.234,-0.317 					"/>
				</g>
			</g>
			<g>
				<line fill="none" x1="2.234" y1="-0.267" x2="2.234" y2="7.764"/>
				<path d="M1.988,7.764v-8.031c0-0.134,0.109-0.242,0.246-0.242l0,0c0.137,0,0.246,0.108,0.246,0.242l0,0v8.031
					c0,0.134-0.11,0.242-0.246,0.242l0,0C2.097,8.008,1.988,7.899,1.988,7.764L1.988,7.764z"/>
			</g>
		</g>
	</g>
	<g id="Livello_2_2_">
		<g>
			<g>
				<g>
					<ellipse fill="#EDDB00" cx="10.156" cy="7.898" rx="3.481" ry="1.018"/>
				</g>
				<g>
					<ellipse fill="#FFF800" cx="9.044" cy="7.902" rx="1.044" ry="0.345"/>
				</g>
				<g>
					<polygon fill="#D82627" points="9.044,-0.317 14.11,2.385 9.044,5.086 					"/>
				</g>
				<g>
					<g>
						<polygon fill="#C12126" points="9.415,-0.119 9.415,4.218 14.11,2.385 9.044,5.086 9.044,-0.317 						"/>
					</g>
				</g>
			</g>
			<g>
				<line fill="none" x1="9.044" y1="-0.267" x2="9.044" y2="7.764"/>
				<path d="M8.797,7.764v-8.031c0-0.134,0.11-0.242,0.247-0.242l0,0c0.136,0,0.246,0.108,0.246,0.242l0,0v8.031
					c0,0.134-0.11,0.242-0.246,0.242l0,0C8.907,8.008,8.797,7.899,8.797,7.764L8.797,7.764z"/>
			</g>
		</g>
	</g>
</g>
<g id="Livello_2_1_">
	<g>
		<ellipse fill="#EDDB00" cx="5.639" cy="13.927" rx="4.31" ry="1.26"/>
	</g>
	<g>
		<polygon fill="#6B5222" points="5.899,5.758 5.638,5.8 5.38,5.758 4.925,13.925 5.638,13.925 6.353,13.925 		"/>
		<polygon fill="#5A8E3F" points="9.013,11.168 9.389,11.168 8.531,9.674 9.013,9.674 8.318,8.492 8.745,8.492 7.781,7.352 
			8.369,7.352 7.406,5.885 7.781,5.885 7.031,4.595 7.567,4.595 6.71,3.481 7.301,3.481 6.281,2.38 6.762,2.38 5.638,0.506 
			4.513,2.38 4.997,2.38 3.978,3.481 4.568,3.481 3.711,4.595 4.247,4.595 3.497,5.885 3.872,5.885 2.907,7.352 3.497,7.352 
			2.533,8.492 2.96,8.492 2.265,9.674 2.746,9.674 1.89,11.168 2.265,11.168 1.354,12.528 5.638,12.528 9.924,12.528 		"/>
		<polygon fill="#79B556" points="2.575,11.168 3.26,9.674 2.948,9.674 3.474,8.492 3.218,8.492 4.01,7.352 3.593,7.352 
			4.385,5.885 4.181,5.885 4.76,4.595 4.395,4.595 5.081,3.481 4.663,3.481 5.51,2.38 5.198,2.38 5.638,0.506 5.638,0.506 
			4.513,2.38 4.997,2.38 3.978,3.481 4.568,3.481 3.711,4.595 4.247,4.595 3.497,5.885 3.872,5.885 2.907,7.352 3.497,7.352 
			2.533,8.492 2.96,8.492 2.265,9.674 2.746,9.674 1.89,11.168 2.265,11.168 1.354,12.528 2.04,12.528 2.778,11.168 		"/>
		<polygon opacity="0.5" fill="#5A8E3F" enable-background="new    " points="8.703,11.168 8.017,9.674 8.329,9.674 7.802,8.492 
			8.061,8.492 7.269,7.352 7.686,7.352 6.894,5.885 7.096,5.885 6.518,4.595 6.883,4.595 6.196,3.481 6.615,3.481 5.768,2.38 
			6.079,2.38 5.638,0.506 5.638,0.506 6.762,2.38 6.281,2.38 7.298,3.481 6.71,3.481 7.567,4.595 7.031,4.595 7.781,5.885 
			7.406,5.885 8.369,7.352 7.781,7.352 8.745,8.492 8.318,8.492 9.013,9.674 8.531,9.674 9.389,11.168 9.013,11.168 9.922,12.528 
			9.238,12.528 8.499,11.168 		"/>
	</g>
</g>
</svg>
