<?xml version="1.0" encoding="utf-8"?>
<!-- Generator: Adobe Illustrator 13.0.0, SVG Export Plug-In . SVG Version: 6.00 Build 14948)  -->
<!DOCTYPE svg PUBLIC "-//W3C//DTD SVG 1.1//EN" "http://www.w3.org/Graphics/SVG/1.1/DTD/svg11.dtd">
<svg version="1.1" id="_x31_" xmlns="http://www.w3.org/2000/svg" xmlns:xlink="http://www.w3.org/1999/xlink" x="0px" y="0px"
	 width="23.514px" height="23.759px" viewBox="0 0 23.514 23.759" enable-background="new 0 0 23.514 23.759" xml:space="preserve">
<g>
	<g>
		<path fill="#EBF8FF" d="M1.985,8.671h19.544c0,0,1.985-0.185,1.985-1.081c0-0.449-2.689-2.098-5.444-3.884
			C15.316,1.923,12.499,0,11.756,0C10.99,0,8.221,2.062,5.388,3.923C2.746,5.659,0,7.189,0,7.591C0,8.42,1.985,8.671,1.985,8.671z"
			/>
		<path fill="#91A6CE" d="M1.985,8.671h19.544c0,0,1.985-0.185,1.985-1.081c0-0.054-0.04-0.125-0.109-0.208
			c-0.097,0.35-0.563,0.606-1.729,0.067c-1.865-0.865-9.48-6.118-9.883-6.142c-0.402-0.025-8.417,5.374-9.918,6.094S0,7.591,0,7.591
			C0,8.42,1.985,8.671,1.985,8.671z"/>
		<polygon fill="#FFA131" points="1.985,22.419 21.529,22.419 21.529,7.738 11.756,1.62 1.985,7.738 		"/>
		<polygon fill="#FFC261" points="11.756,1.62 1.985,7.731 21.529,7.731 		"/>
		<g>
			<polygon fill="#E5A045" points="3.574,7.729 3.574,6.742 3.408,6.846 3.408,7.729 			"/>
			<polygon fill="#E5A045" points="4.741,7.729 4.741,6.011 4.574,6.115 4.574,7.729 			"/>
			<polygon fill="#E5A045" points="5.907,7.729 5.907,5.282 5.741,5.385 5.741,7.729 			"/>
			<polygon fill="#E5A045" points="7.074,7.729 7.074,4.552 6.907,4.655 6.907,7.729 			"/>
			<polygon fill="#E5A045" points="8.258,7.729 8.258,3.81 8.092,3.914 8.092,7.729 			"/>
			<polygon fill="#E5A045" points="9.443,7.729 9.443,3.068 9.277,3.173 9.277,7.729 			"/>
			<polygon fill="#E5A045" points="10.628,7.729 10.628,2.327 10.462,2.431 10.462,7.729 			"/>
			<polygon fill="#E5A045" points="11.812,7.729 11.812,1.655 11.756,1.62 11.646,1.689 11.646,7.729 			"/>
			<polygon fill="#E5A045" points="12.998,7.729 12.998,2.396 12.832,2.292 12.832,7.729 			"/>
			<polygon fill="#E5A045" points="14.183,7.729 14.183,3.138 14.015,3.034 14.015,7.729 			"/>
			<polygon fill="#E5A045" points="15.367,7.729 15.367,3.879 15.2,3.776 15.2,7.729 			"/>
			<polygon fill="#E5A045" points="16.551,7.729 16.551,4.621 16.385,4.517 16.385,7.729 			"/>
			<polygon fill="#E5A045" points="17.737,7.729 17.737,5.363 17.571,5.258 17.571,7.729 			"/>
			<polygon fill="#E5A045" points="18.92,7.729 18.92,6.104 18.754,6 18.754,7.729 			"/>
			<polygon fill="#E5A045" points="20.106,7.729 20.106,6.846 19.939,6.742 19.939,7.729 			"/>
		</g>
		<g>
			<rect x="1.985" y="20.724" opacity="0.2" fill="#8C1F5D" width="19.544" height="0.185"/>
			<rect x="1.985" y="18.981" opacity="0.2" fill="#8C1F5D" width="19.544" height="0.185"/>
			<rect x="1.985" y="17.239" opacity="0.2" fill="#8C1F5D" width="19.544" height="0.187"/>
			<rect x="1.985" y="15.499" opacity="0.2" fill="#8C1F5D" width="19.544" height="0.185"/>
			<rect x="1.985" y="13.757" opacity="0.2" fill="#8C1F5D" width="19.544" height="0.183"/>
			<rect x="1.985" y="12.014" opacity="0.2" fill="#8C1F5D" width="19.544" height="0.185"/>
			<rect x="1.985" y="10.273" opacity="0.2" fill="#8C1F5D" width="19.544" height="0.185"/>
			<rect x="1.985" y="8.533" opacity="0.2" fill="#8C1F5D" width="19.544" height="0.183"/>
		</g>
		<g>
			<polygon fill="#FFC261" points="1.985,7.738 1.985,22.419 3.129,22.419 3.129,7.021 			"/>
			<polygon fill="#FFC261" points="21.529,22.419 21.529,7.738 20.384,7.021 20.384,22.419 			"/>
		</g>
		<polygon opacity="0.4" fill="#8C1F5D" points="1.985,7.738 1.985,8.048 11.756,1.932 21.529,8.048 21.529,7.738 11.756,1.62 		"/>
		<rect x="1.985" y="7.729" opacity="0.2" fill="#8C1F5D" width="19.544" height="0.23"/>
		<path fill="#CFDBEC" d="M18.727,22.549c0,0,1.595-2.67,3.784,0C22.511,22.549,20.98,22.951,18.727,22.549z"/>
		<g>
			<rect x="5.813" y="11.077" opacity="0.4" fill="#8C1F5D" width="11.887" height="11.342"/>
			<rect x="6.231" y="11.402" fill="#8C1F5D" width="11.052" height="11.017"/>
		</g>
		<path fill="#CFDBEC" d="M1.325,22.401c0,0,2.902-4.856,6.887,0C8.211,22.401,5.423,23.135,1.325,22.401z"/>
		<path fill="#CFDBEC" d="M14.933,23.433c0,0,2.902-4.856,6.888,0C21.821,23.433,19.031,24.167,14.933,23.433z"/>
		<path fill="#CFDBEC" d="M3.99,22.962c0,0,1.594-2.669,3.783,0C7.773,22.962,6.241,23.365,3.99,22.962z"/>
	</g>
</g>
</svg>
